<svg xmlns="http://www.w3.org/2000/svg" viewBox="0 0 160 160">
  <ellipse cx="80" cy="88" rx="34" ry="22" fill="#FD7E14"/>
  <path d="M58 76c10 7 17 15 21 23M72 70c11 6 18 12 23 22M90 70c11 4 18 12 23 21" stroke="#FD7E14" stroke-width="5" stroke-linecap="round" opacity=".65"/>
  <path d="M52 86c11 4 22 5 32 5M56 98c13-2 26-2 38 0M62 110c12-4 24-5 36-4" stroke="#FD7E14" stroke-width="4" stroke-linecap="round" opacity=".45"/>
  <circle cx="114" cy="58" r="13" fill="#FD7E14" opacity=".75"/>
  <path d="M106 58h16M114 50v16" stroke="#FD7E14" stroke-width="4" stroke-linecap="round" opacity=".55"/>
</svg>
